<svg xmlns="http://www.w3.org/2000/svg" version="1.2" viewBox="0 0 150 55"><path class="base" d="M148.444 10.812L150 10.08 141.896 0l-1.02 1.655c-1.245 2.02-2.913 5.094-3.3 7.565l-.167-.184c-3.315-3.284-7.724-5.094-12.413-5.094S115.9 5.752 112.57 9.05c-7.566 7.72-21.058 12.328-36.094 12.328-15.085 0-29.688-4.644-39.016-12.38-3.726-3.39-8.068-5.182-12.563-5.182-4.48 0-8.822 1.854-12.22 5.22l-.24.264c-.364-2.484-2.056-5.604-3.312-7.645L8.105 0 0 10.08l1.556.733c.508.24 5.037 2.336 7.855 2.336l.18-.014c-1.377 2.528-2.106 5.364-2.095 8.307.017 4.612 1.86 8.944 5.222 12.226C27.56 47.225 50.183 55 74.79 55c24.482 0 47.29-7.77 62.62-21.37 5.59-5.538 6.608-13.912 3.065-20.49l.113.008c2.817 0 7.348-2.096 7.856-2.336z"/><path class="bar" d="M135.53 31.664C120.747 44.77 98.608 52.29 74.79 52.29c-23.93 0-45.877-7.514-60.185-20.583-2.807-2.74-4.36-6.39-4.375-10.273-.013-3.945 1.543-7.667 4.38-10.48C17.493 8.1 21.146 6.53 24.898 6.53c3.798 0 7.5 1.543 10.76 4.504 10 8.297 24.878 13.056 40.82 13.056 15.994 0 29.864-4.792 38.042-13.136 2.798-2.772 6.52-4.3 10.477-4.3 3.96 0 7.68 1.527 10.48 4.3 5.777 5.723 5.777 15.037.053 20.71zM4.324 9.054L7.767 4.77c1.32 2.468 2.2 4.86 2.027 5.635-.07.016-.194.033-.384.033-1.317 0-3.49-.743-5.086-1.385zM142.232 4.77l3.442 4.28c-1.597.643-3.77 1.387-5.086 1.387-.188 0-.312-.017-.384-.033-.173-.774.71-3.165 2.028-5.633z"/></svg>