<svg xmlns="http://www.w3.org/2000/svg" version="1.2" viewBox="0 0 115 69"><path class="big" d="M57.5 3.39l54.255 16.275v29.67L57.5 65.61 3.247 49.334v-29.67L57.5 3.39m0-3.39L0 17.25v34.5L57.5 69 115 51.75v-34.5L57.5 0zM14.193 25.858H16.2v7.22l2.8-7.22h2.026l-2.935 7.22 3.17 7.685H19l-2.8-7.685v7.685h-2.008V25.858zm18.61 7.82c0 2.63-.293 4.502-.88 5.607-.585 1.107-1.567 1.66-2.944 1.66-1.448 0-2.47-.595-3.06-1.785-.586-1.164-.88-3.234-.88-6.208 0-2.65.29-4.527.87-5.627.585-1.107 1.576-1.66 2.973-1.66 1.25 0 2.175.427 2.78 1.283.4.573.69 1.386.87 2.443.178.98.27 2.408.27 4.288zm-2.104.212c0-2.582-.117-4.293-.35-5.137-.23-.85-.705-1.274-1.42-1.274-.714 0-1.19.39-1.43 1.167-.23.785-.346 2.36-.346 4.73 0 2.18.122 3.692.368 4.536.25.8.72 1.197 1.41 1.197.675 0 1.14-.372 1.39-1.118.25-.74.378-2.107.378-4.102zm7.935-8.032h1.72l1.31 6.082c.162.76.308 1.52.44 2.282.132.763.253 1.563.363 2.4l.03-.257s.012-.105.018-.13l.28-1.71.25-1.62.222-1.072 1.168-5.975h1.738l1.37 14.905h-1.92l-.337-5.06-.034-.665s-.014-.34-.014-.463l-.088-2-.046-1.833-.005-.082-.015-.168-.048.3c-.052.353-.1.662-.14.925l-.11.667-.253 1.36-.096.512-1.254 6.506H41.83l-1.178-5.618c-.16-.74-.303-1.49-.43-2.254-.125-.763-.24-1.562-.343-2.398l-.58 10.27h-1.89l1.223-14.904zm13.734 0h2.72c2.13 0 3.197 1.323 3.197 3.967 0 1.01-.14 1.76-.416 2.25-.276.49-.765.86-1.466 1.11.805.322 1.355.733 1.65 1.235.304.496.454 1.242.454 2.24 0 2.734-1.17 4.103-3.514 4.103H52.37V25.858zm1.88 6.564c.783 0 1.327-.18 1.63-.54.304-.38.457-1.046.457-2 0-1.607-.583-2.413-1.745-2.413h-.242c-.052 0-.083 0-.097.007v4.944zm0 6.623c.828 0 1.4-.178 1.717-.53.316-.355.475-.995.475-1.923 0-.953-.163-1.62-.494-1.998-.323-.386-.89-.58-1.696-.58v5.03zm9.42-13.187h2.01v14.905h-2.01V25.858zm7.915 0h1.873l1.998 5.946c.578 1.68 1.09 3.472 1.533 5.376-.16-1.15-.28-2.193-.356-3.126-.078-.933-.116-1.81-.116-2.635v-5.56h2.008v14.903h-1.88l-2.243-6.71c-.206-.624-.4-1.263-.584-1.92-.184-.656-.354-1.345-.508-2.065-.012-.09-.032-.2-.06-.33l-.103-.444c.02.167.034.31.046.43.014.12.024.22.03.304l.106 1.516.114 1.843c.006.103.012.228.016.376.003.147.005.315.005.5l.106 6.498h-1.987V25.86zm14.368 0h1.564l3.194 14.905h-1.986l-.56-2.905H85.21l-.57 2.905h-1.93l3.243-14.905zm1.92 10.445l-.442-2.375c-.296-1.615-.537-3.34-.724-5.174-.09.896-.206 1.8-.347 2.718-.143.918-.31 1.89-.503 2.92l-.367 1.912h2.383zm6.013-10.445h6.535v1.757h-2.25v13.147H96.2V27.615h-2.315v-1.757zM39.69 51.748v-5.503h1.154c.553 0 .99.055 1.31.163.346.108.658.29.94.546.566.518.85 1.198.85 2.042 0 .846-.295 1.53-.886 2.052-.297.26-.61.442-.934.545-.304.103-.735.154-1.293.154h-1.14zm.83-.78h.374c.374 0 .683-.04.93-.12.248-.083.47-.215.67-.395.41-.373.613-.86.613-1.457 0-.604-.202-1.094-.605-1.47-.363-.333-.898-.502-1.607-.502h-.375v3.943zm8.817-3.944H47.13v1.323h2.143v.78H47.13v1.84h2.207v.78H46.3v-5.503h3.037v.78zm3.233-.78v4.723h1.617v.78H51.74v-5.502h.83zm4.55 0v5.503h-.83v-5.502h.83zm3.466 2.195l2.14-2.196h1.108l-2.486 2.49 2.5 3.012h-1.11l-1.98-2.45-.17.172v2.277h-.83v-5.502h.83v2.194zm8.55 1.97H66.78l-.613 1.336h-.895l2.723-5.848 2.626 5.847h-.906l-.578-1.337zm-.34-.78l-.816-1.87-.854 1.87h1.67zm5.036-2.607v4.723h-.83v-4.723h-1.265v-.78h3.356v.78h-1.26z"/><path class="small" d="M57.5 0L0 17.25v34.5L57.5 69 115 51.75v-34.5L57.5 0zM45.953 52.307l-7.318-20.084v20.084H33.39V13.354h5.245v18.868l7.318-18.868h5.297l-7.672 18.868 8.275 20.084h-5.9zm36.907-4.952c-2.11 1.854-4.315 3.144-6.614 3.864-2.157.723-5.208 1.084-9.156 1.084h-8.075v-38.95h8.176c3.918 0 7.016.386 9.28 1.16 2.444.756 4.65 2.04 6.64 3.857 4.02 3.67 6.028 8.483 6.028 14.46 0 5.985-2.095 10.827-6.277 14.524zm-3.94-24.918c2.858 2.657 4.282 6.12 4.282 10.396 0 4.234-1.44 7.677-4.337 10.317-1.407 1.277-2.988 2.21-4.743 2.794-1.745.56-3.935.842-6.584.842h-2.646v-27.91h2.646c5.02 0 8.812 1.19 11.382 3.56z"/></svg>